<svg width="16" height="16" viewBox="0 0 16 16" fill="none" xmlns="http://www.w3.org/2000/svg">
<path fill-rule="evenodd" clip-rule="evenodd" d="M5.5 1H5V1.5V3H2V4H14V3H11V1.5V1H10.5H5.5ZM10 3V2H6V3H10ZM3 5H13V15H3V5ZM6 14V6H7V14H6ZM9 14V6H10V14H9Z" fill="#525252"/>
<path fill-rule="evenodd" clip-rule="evenodd" d="M4 1C4 0.447715 4.44772 0 5 0H11C11.5523 0 12 0.447715 12 1V2H14C14.5523 2 15 2.44772 15 3V4C15 4.55228 14.5523 5 14 5V15C14 15.5523 13.5523 16 13 16H3C2.44772 16 2 15.5523 2 15V5C1.44772 5 1 4.55228 1 4V3C1 2.44772 1.44772 2 2 2H4V1ZM3 5H13V15H3V5ZM5 1H11V3H14V4H2V3H5V1ZM10 2V3H6V2H10ZM6 14H7V6H6V14ZM9 14H10V6H9V14Z" fill="#D6D6D6"/>
</svg>
