<svg width="16" height="16" viewBox="0 0 16 16" fill="none" xmlns="http://www.w3.org/2000/svg">
<path d="M8 15C9.10457 15 10 14.1046 10 13C10 11.8954 9.10457 11 8 11C6.89543 11 6 11.8954 6 13C6 14.1046 6.89543 15 8 15Z" fill="#525252"/>
<path fill-rule="evenodd" clip-rule="evenodd" d="M11 13C11 14.6569 9.65685 16 8 16C6.34315 16 5 14.6569 5 13C5 11.3431 6.34315 10 8 10C9.65685 10 11 11.3431 11 13ZM10 13C10 14.1046 9.10457 15 8 15C6.89543 15 6 14.1046 6 13C6 11.8954 6.89543 11 8 11C9.10457 11 10 11.8954 10 13Z" fill="#D6D6D6"/>
<path d="M8 10C9.10457 10 10 9.10457 10 8C10 6.89543 9.10457 6 8 6C6.89543 6 6 6.89543 6 8C6 9.10457 6.89543 10 8 10Z" fill="#525252"/>
<path fill-rule="evenodd" clip-rule="evenodd" d="M11 8C11 9.65685 9.65685 11 8 11C6.34315 11 5 9.65685 5 8C5 6.34315 6.34315 5 8 5C9.65685 5 11 6.34315 11 8ZM10 8C10 9.10457 9.10457 10 8 10C6.89543 10 6 9.10457 6 8C6 6.89543 6.89543 6 8 6C9.10457 6 10 6.89543 10 8Z" fill="#D6D6D6"/>
<path d="M8 5C9.10457 5 10 4.10457 10 3C10 1.89543 9.10457 1 8 1C6.89543 1 6 1.89543 6 3C6 4.10457 6.89543 5 8 5Z" fill="#525252"/>
<path fill-rule="evenodd" clip-rule="evenodd" d="M11 3C11 4.65685 9.65685 6 8 6C6.34315 6 5 4.65685 5 3C5 1.34315 6.34315 0 8 0C9.65685 0 11 1.34315 11 3ZM10 3C10 4.10457 9.10457 5 8 5C6.89543 5 6 4.10457 6 3C6 1.89543 6.89543 1 8 1C9.10457 1 10 1.89543 10 3Z" fill="#D6D6D6"/>
</svg>
