<svg width="16" height="16" viewBox="0 0 16 16" fill="none" xmlns="http://www.w3.org/2000/svg">
<path d="M5 8C5 6.34315 6.34315 5 8 5C9.65685 5 11 6.34315 11 8C11 9.65685 9.65685 11 8 11C6.34315 11 5 9.65685 5 8Z" fill="#525252"/>
<path fill-rule="evenodd" clip-rule="evenodd" d="M8 12C5.79086 12 4 10.2091 4 8C4 5.79086 5.79086 4 8 4C10.2091 4 12 5.79086 12 8C12 10.2091 10.2091 12 8 12ZM8 5C6.34315 5 5 6.34315 5 8C5 9.65685 6.34315 11 8 11C9.65685 11 11 9.65685 11 8C11 6.34315 9.65685 5 8 5Z" fill="#D6D6D6"/>
<path fill-rule="evenodd" clip-rule="evenodd" d="M4 1H2H1V2V4H2L2 2H4V1ZM14 1H12V2H14V4H15V2V1H14ZM6 1H10V2H6V1ZM10 14H6V15H10V14ZM12 15H14H15V14V12H14V14H12V15ZM15 10V6H14V10H15ZM2 6L2 10H1V6H2ZM4 15H2H1V14V12H2L2 14H4V15Z" fill="#525252"/>
<path fill-rule="evenodd" clip-rule="evenodd" d="M4 0C4.55228 0 5 0.447715 5 1C5 0.447715 5.44772 0 6 0H10C10.5523 0 11 0.447715 11 1C11 0.447715 11.4477 0 12 0H15C15.5523 0 16 0.447715 16 1V4C16 4.55228 15.5523 5 15 5C15.5523 5 16 5.44772 16 6V10C16 10.5523 15.5523 11 15 11C15.5523 11 16 11.4477 16 12V15C16 15.5523 15.5523 16 15 16H12C11.4477 16 11 15.5523 11 15C11 15.5523 10.5523 16 10 16H6C5.44772 16 5 15.5523 5 15C5 15.5523 4.55228 16 4 16H1C0.447715 16 0 15.5523 0 15V12C0 11.4477 0.447715 11 1 11C0.447715 11 0 10.5523 0 10V6C0 5.44772 0.447715 5 1 5C0.447715 5 0 4.55228 0 4V1C0 0.447715 0.447715 0 1 0H4ZM2.70711 4.70711C2.51957 4.89464 2.26522 5 2 5C2.55228 5 3 5.44772 3 6L3 10C3 10.2652 2.89464 10.5196 2.70711 10.7071C2.51957 10.8946 2.26522 11 2 11C2.26522 11 2.51957 11.1054 2.70711 11.2929C2.89464 11.4804 3 11.7348 3 12V13H4C4.55228 13 5 13.4477 5 14C5 13.4477 5.44772 13 6 13H10C10.5523 13 11 13.4477 11 14C11 13.4477 11.4477 13 12 13H13V12C13 11.4477 13.4477 11 14 11C13.4477 11 13 10.5523 13 10V6C13 5.44772 13.4477 5 14 5C13.4477 5 13 4.55228 13 4V3H12C11.4477 3 11 2.55228 11 2C11 2.55228 10.5523 3 10 3H6C5.44772 3 5 2.55228 5 2C5 2.55228 4.55228 3 4 3H3V4C3 4.26522 2.89464 4.51957 2.70711 4.70711ZM4 1V2H2V4H1V1H4ZM15 1V4H14V2H12V1H15ZM6 1V2H10V1H6ZM10 14V15H6V14H10ZM12 15V14H14V12H15V15H12ZM15 10H14V6H15V10ZM2 6H1V10H2L2 6ZM4 15V14H2V12H1V15H4Z" fill="#D6D6D6"/>
</svg>
