<svg width="16" height="16" viewBox="0 0 16 16" fill="none" xmlns="http://www.w3.org/2000/svg">
<path d="M8 0L0 8L8 16L16 8L8 0ZM8 4C8.24205 3.9804 8.48217 4.05625 8.66903 4.21135C8.85589 4.36644 8.97468 4.58848 9 4.83L8.66 8.58C8.63411 8.70252 8.56568 8.81191 8.46684 8.88879C8.36799 8.96567 8.24512 9.00507 8.12 9H7.88C7.75488 9.00507 7.63201 8.96567 7.53316 8.88879C7.43432 8.81191 7.36589 8.70252 7.34 8.58L7 4.83C7.02532 4.58848 7.14411 4.36644 7.33097 4.21135C7.51783 4.05625 7.75795 3.9804 8 4V4ZM8 12C7.80222 12 7.60888 11.9414 7.44443 11.8315C7.27998 11.7216 7.15181 11.5654 7.07612 11.3827C7.00043 11.2 6.98063 10.9989 7.01921 10.8049C7.0578 10.6109 7.15304 10.4327 7.29289 10.2929C7.43275 10.153 7.61093 10.0578 7.80491 10.0192C7.99889 9.98063 8.19996 10.0004 8.38268 10.0761C8.56541 10.1518 8.72159 10.28 8.83147 10.4444C8.94135 10.6089 9 10.8022 9 11C9 11.2652 8.89464 11.5196 8.70711 11.7071C8.51957 11.8946 8.26522 12 8 12V12Z" fill="#FBB549"/>
</svg>
