<?xml version="1.0" encoding="utf-8"?>
<!-- Generator: Adobe Illustrator 24.0.1, SVG Export Plug-In . SVG Version: 6.00 Build 0)  -->
<svg version="1.1" id="Layer_1" xmlns="http://www.w3.org/2000/svg" xmlns:xlink="http://www.w3.org/1999/xlink" x="0px" y="0px"
	 viewBox="0 0 240 240" style="enable-background:new 0 0 240 240;" xml:space="preserve">
<style type="text/css">
	.st0{fill-rule:evenodd;clip-rule:evenodd;fill:none;}
	.st1{fill-rule:evenodd;clip-rule:evenodd;fill:#48AAB5;}
	.st2{fill:#1D1D1D;}
	.st3{fill-rule:evenodd;clip-rule:evenodd;fill:#BDBDBD;}
	.st4{fill-rule:evenodd;clip-rule:evenodd;fill:#1D1D1D;}
</style>
<g>
	<rect class="st0" width="240" height="240"/>
	<g>
		<path class="st1" d="M214.6,133.9c-0.4,0-0.8-0.1-1.2-0.2l-20.9-6.9c-1.6-0.5-2.8-2.1-2.8-3.8V58.2l-54.8-18.9
			c-1.6-0.6-2.7-2.1-2.7-3.8v-22c0-1.3,0.6-2.5,1.7-3.2c0.7-0.5,1.5-0.8,2.3-0.8c0.4,0,0.9,0.1,1.3,0.2l78.4,26.5
			c1.6,0.5,2.7,2.1,2.7,3.8v89.9c0,1.3-0.6,2.5-1.7,3.2C216.3,133.6,215.5,133.9,214.6,133.9z"/>
		<path class="st2" d="M136.2,13.5L214.6,40v89.9l-20.9-6.9V55.3l-57.5-19.8V13.5 M136.2,5.5c-1.7,0-3.3,0.5-4.7,1.5
			c-2.1,1.5-3.3,3.9-3.3,6.5v22c0,3.4,2.2,6.4,5.4,7.6l52.1,18v62c0,3.5,2.2,6.5,5.5,7.6l20.9,6.9c0.8,0.3,1.7,0.4,2.5,0.4
			c1.7,0,3.3-0.5,4.7-1.5c2.1-1.5,3.3-3.9,3.3-6.5V40c0-3.4-2.2-6.5-5.4-7.6L138.8,5.9C138,5.6,137.1,5.5,136.2,5.5L136.2,5.5z"/>
	</g>
	<g>
		<path class="st1" d="M188,181.4c-0.4,0-0.9-0.1-1.3-0.2l-20.9-7.1c-1.6-0.5-2.7-2.1-2.7-3.8V76.4L79.7,47.7
			c-1.6-0.6-2.7-2.1-2.7-3.8V21.3c0-1.3,0.6-2.5,1.7-3.3c0.7-0.5,1.5-0.7,2.3-0.7c0.4,0,0.9,0.1,1.3,0.2l106.9,36.9
			c1.6,0.6,2.7,2.1,2.7,3.8v119.1c0,1.3-0.6,2.5-1.7,3.3C189.6,181.2,188.8,181.4,188,181.4z"/>
		<path class="st2" d="M81,21.3L188,58.3v119.1l-20.9-7.1V73.6L81,43.9V21.3 M81,13.3c-1.6,0-3.3,0.5-4.6,1.5
			c-2.1,1.5-3.4,3.9-3.4,6.5v22.5c0,3.4,2.2,6.4,5.4,7.6l80.7,27.8v91c0,3.4,2.2,6.5,5.4,7.6l20.9,7.1c0.8,0.3,1.7,0.4,2.6,0.4
			c1.7,0,3.3-0.5,4.7-1.5c2.1-1.5,3.3-3.9,3.3-6.5V58.3c0-3.4-2.2-6.4-5.4-7.6L83.6,13.8C82.8,13.5,81.9,13.3,81,13.3L81,13.3z"/>
	</g>
	<g>
		<g>
			<path class="st3" d="M161.3,229.7c-0.4,0-0.9-0.1-1.3-0.2l-134.8-46c-1.6-0.6-2.7-2.1-2.7-3.8V29.9c0-1.3,0.6-2.5,1.7-3.3
				c0.7-0.5,1.5-0.7,2.3-0.7c0.4,0,0.9,0.1,1.3,0.2l134.8,46.7c1.6,0.6,2.7,2.1,2.7,3.8v149.1c0,1.3-0.6,2.5-1.7,3.3
				C163,229.4,162.1,229.7,161.3,229.7z M131.9,184.5V99.6L55.6,73.1v85.3L131.9,184.5z M124.7,177.7c-0.4,0-0.9-0.1-1.3-0.2
				l-62-21.2c-1.6-0.6-2.7-2.1-2.7-3.8v-69c0-1.3,0.6-2.5,1.7-3.3c0.7-0.5,1.5-0.7,2.3-0.7c0.4,0,0.9,0.1,1.3,0.2l62,21.5
				c1.6,0.6,2.7,2.1,2.7,3.8v68.7c0,1.3-0.6,2.5-1.7,3.3C126.4,177.5,125.6,177.7,124.7,177.7z"/>
		</g>
		<g>
			<path class="st2" d="M26.5,29.9l134.8,46.7v149.1l-134.8-46V29.9 M135.9,190.1v-46.7V96.7L51.6,67.5v93.8L135.9,190.1 M62.7,83.5
				l62,21.5v34.3v34.3l-62-21.2V83.5 M26.5,21.9c-1.6,0-3.3,0.5-4.6,1.5c-2.1,1.5-3.4,3.9-3.4,6.5v149.8c0,3.4,2.2,6.5,5.4,7.6
				l134.8,46c0.8,0.3,1.7,0.4,2.6,0.4c1.6,0,3.3-0.5,4.7-1.5c2.1-1.5,3.3-3.9,3.3-6.5V76.6c0-3.4-2.2-6.4-5.4-7.6L29.1,22.3
				C28.3,22,27.4,21.9,26.5,21.9L26.5,21.9z"/>
		</g>
	</g>
	<g>
		<polygon class="st4" points="52.9,161.2 52.9,79.3 126.5,104.8 126.5,145.6 126.5,186.3 		"/>
	</g>
</g>
</svg>
